<?xml version="1.0" encoding="utf-8"?>
<!-- Generator: Adobe Illustrator 25.1.0, SVG Export Plug-In . SVG Version: 6.00 Build 0)  -->
<svg version="1.1" xmlns="http://www.w3.org/2000/svg" xmlns:xlink="http://www.w3.org/1999/xlink" x="0px" y="0px"
	 viewBox="0 0 595.28 841.89" style="enable-background:new 0 0 595.28 841.89;" xml:space="preserve">
<style type="text/css">
	.st0{fill:none;stroke:#020203;stroke-width:14;stroke-miterlimit:10;}
	.st1{fill:none;stroke:#020203;stroke-width:15;stroke-miterlimit:10;}
	.st2{fill:none;stroke:#020203;stroke-width:10;stroke-miterlimit:10;}
	.st3{fill:none;stroke:#020203;stroke-width:9;stroke-miterlimit:10;}
	.st4{fill:none;stroke:#020203;stroke-width:8;stroke-miterlimit:10;}
</style>
<g id="Layer_1">
</g>
<g id="Layer_2">
	<path class="st0" d="M228.7,137.62c5.91,6.71,20.44,2.1,32.37-1.67c16.63-5.27,17.08-13.1,40.18-26.23
		c12.58-7.15,18.23-8.45,17.97-11.35c-0.52-5.64-22.81-9.39-41.96-7.63c-11.98,1.1-33,3.03-44.09,18.97
		C227.58,117.76,223.15,131.33,228.7,137.62z"/>
	<path class="st0" d="M319.21,98.37c5.74-0.72,10.97,7.59,17.19,17.48c9.48,15.08,23.96,37.38,16.18,61.38
		c-2.08,6.43-6.81,21.01-20.65,26.23c-8.3,3.13-19.84,2.87-27.9-3.91c-8.21-6.9-8.94-17.3-9.49-25.11
		c-0.66-9.42,1.28-15.76,6.14-31.25C313.14,103.54,315.18,98.88,319.21,98.37z"/>
	<path class="st0" d="M320.64,90.54c-15.87,20.45-25.48,39.14-31.35,52.73c-6.72,15.54-10.76,29.55-13.54,39.19
		c-1.35,4.68-5.08,17.94-8.55,35.63c-2.93,14.95-4.23,26.31-6.41,44.89c-1.33,11.27-2.25,20.63-2.85,27.08"/>
	<path class="st0" d="M201.65,344.19c1.43-12.59,2.85-25.18,4.28-37.76"/>
	<path class="st0" d="M300.69,322.11c-33.49-5.46-66.98-10.93-100.47-16.39"/>
	<path class="st0" d="M307.1,314.98c0.34,10.46,0.5,41.19-12.83,46.31c-2.08,0.8-7.59,0.31-18.53-0.71
		c-8.68-0.81-15.2-1.7-23.73-2.83c-21.54-2.87-19.89-2.52-21.87-2.87c-8.59-1.53-20.65-4.72-34.91-12.11"/>
	<path class="st1" d="M233.71,378.39c-23.07-6.73-46.14-13.47-69.22-20.2"/>
	<path class="st0" d="M272.19,385.52c15.68,1.66,31.35,3.33,47.03,4.99"/>
	<path class="st2" d="M136.1,552.96c-4.55-9.96-7.08-18.62-8.55-24.94c-2.51-10.78-2.26-16.03-2.14-17.81
		c0.44-6.5,2.16-11.55,3.56-15.68c2.05-6.03,4.46-10.83,6.41-14.25"/>
	<path class="st2" d="M148.21,455.35c3.8-5.7,7.6-11.4,11.4-17.1"/>
	<path class="st0" d="M361.12,404.81c-0.63-20.83-1.72-38.28-2.71-51.35c-1.97-26-3.58-34.25-4.99-40.61
		c-2.78-12.57-4.26-13.12-9.26-31.35c-3.54-12.89-5.37-21.97-8.55-37.76c-3.13-15.54-2.37-13.73-9.26-52.73
		c-3.21-18.17-4.41-24.39-5.7-35.63c-1.75-15.24-2.06-25.59-2.14-29.21c-0.25-11.06,0.17-20.51,0.71-27.79"/>
	<path class="st0" d="M329.9,406.9c19.93,1.81,32.98-1.87,41.33-5.7c1.55-0.71,9.26-4.33,19.95-8.55
		c13.47-5.32,16.66-5.67,19.95-4.99c9.46,1.95,14.74,11.33,16.39,14.25c4.67,8.29,4.76,16.13,4.99,21.38
		c0.14,3.21,2.95,17.82,8.55,47.03c2.39,12.44,5.44,28.37,12.11,46.31c8.88,23.89,14.48,25.3,29.21,59.14
		c10.1,23.2,11.53,31.85,12.11,37.05c1.29,11.46,3.15,28-7.13,43.46c-11,16.54-28.59,20.88-33.49,22.09
		c-13.51,3.33-35.94,3.81-42.04-7.13c-2.09-3.74-2.11-8.53-2.14-16.39c-0.01-2,0.07-3.8,1.43-15.68c0.89-7.81,1.34-11.72,2.14-17.81
		c0.7-5.35,1.64-12.11,2.85-19.95"/>
	<path class="st3" d="M461.72,591.44c3.43,7.12,4.96,13.41,5.7,17.81c1.07,6.33,2.01,11.88,0,18.53c-2.03,6.7-6.04,11.18-8.55,13.54
		"/>
	<path class="st0" d="M288.76,602.37c-2.67,20.82-5.35,41.64-8.02,62.46"/>
	<path class="st0" d="M384.05,656.28c-15.93-2.74-29.33-4.18-39.19-4.99c-22.9-1.89-30.11-0.67-33.49,0
		c-6.11,1.22-18.5,3.85-30.64,13.54c-5.09,4.06-14.1,11.26-18.53,24.23c-0.81,2.37-7.13,21.88,3.56,38.48
		c7.78,12.08,20.18,15.79,34.91,19.95c21.93,6.2,39.69,4.69,59.14,2.85c20.08-1.9,39.97-3.98,61.99-15.68
		c21.01-11.16,26.74-21.94,28.5-25.65c4.66-9.84,4.73-19.31,4.28-24.94"/>
	<path class="st2" d="M307.1,578.61c4.47,4.49,22.34,22.69,32.78,39.9c4.02,6.64,5.97,11.53,7.13,14.96
		c2.47,7.35,3.26,13.82,3.52,18.32"/>
	<path class="st2" d="M297.84,595c11.88,17.34,23.75,34.68,35.63,52.01"/>
	<path class="st2" d="M287.03,615.83c5.26,5.54,11.05,12.55,16.51,21.21c3.14,4.99,5.72,9.79,7.84,14.25"/>
	<path class="st1" d="M363.39,478.86c10.94,0.32,19.93-0.88,26.36-2.14c3.44-0.67,8.85-1.76,15.68-4.28
		c2.16-0.8,9.66-3.65,18.53-9.26c4.83-3.06,10.87-7.44,17.1-13.54"/>
	<path class="st4" d="M294.28,707.58c3.82,4.1,11.15,10.66,22.09,13.54c3.88,1.02,7.78,1.11,13.54,1.42c7.44,0.4,13.6,0.23,17.81,0"
		/>
	<path class="st3" d="M376.93,721.12c7.13-0.71,14.25-1.43,21.38-2.14"/>
	<path class="st3" d="M429.45,348"/>
	<path class="st1" d="M458.51,279.4"/>
	<path class="st0" d="M298.24,571.51c2.47,1.02,19.14,7.57,32.85-1.08c10.25-6.47,13.05-17.76,15.49-27.62
		c0.78-3.13,2.96-12.86,0.67-33.01c-0.98-8.61-2.59-17.57-8.76-39.74c-9.15-32.92-10.83-32.06-13.47-47.15
		c-2.89-16.55-4.97-29.27,0-43.79c2.07-6.04,5.64-13.24,9.43-20.88c7.19-14.49,10.14-17.62,10.78-25.6
		c0.68-8.5-1.77-16.09-2.69-18.86c-0.19-0.57-2.54-7.54-5.39-11.45c-8.21-11.28-26.69-5.53-57.93-8.76
		c-18.2-1.88-35.23-6.24-42.44-8.08c-20.47-5.24-34.47-10.85-45.13-4.04c-5.93,3.79-10.1,10.1-10.1,10.1
		c-3.46,5.24-4.62,10.08-5.39,13.47c-3.58,15.69-5.38,23.53-6.06,28.97c0,0-2.78,21.84-9.43,43.79
		c-4.58,15.13-9.85,25.69-17.51,41.09c-9.91,19.91-11.9,19.96-20.88,38.4c-7.12,14.62-12.68,26.02-16.84,42.44
		c-2.24,8.82-5.89,23.69-4.72,43.11c0.7,11.56,1.31,21.71,7.41,33.01c6.57,12.18,15.79,18.79,23.58,24.25
		c12.61,8.84,23.47,12.29,40.42,17.51c12.78,3.94,29.42,8.95,51.87,10.1c23.04,1.18,34.18-2.63,40.42-5.39
		c3.4-1.5,7.89-3.43,12.8-7.41c11.36-9.22,15.23-21.32,18.19-30.99c4.22-13.8,4.14-24.56,4.04-38.4
		c-0.14-18.82-3.26-30.75-4.72-35.7c-0.99-3.39-1.97-6.16-2.69-8.08"/>
	<path class="st0" d="M475.25,381.81"/>
</g>
</svg>
